<svg xmlns="http://www.w3.org/2000/svg" viewBox="0 0 800 500" role="img" aria-label="Ilustração: conjunto de dispositivos de tecnologia assistiva do catálogo DAVI">
  <defs>
    <linearGradient id="bg4" x1="0" y1="0" x2="1" y2="1">
      <stop offset="0" stop-color="#eff6ff"/>
      <stop offset="1" stop-color="#dcfce7"/>
    </linearGradient>
  </defs>
  <rect width="800" height="500" fill="url(#bg4)"/>
  <circle cx="120" cy="100" r="56" fill="#bfdbfe" opacity="0.6"/>
  <circle cx="700" cy="410" r="66" fill="#bbf7d0" opacity="0.55"/>
  <!-- acionador grande -->
  <ellipse cx="200" cy="350" rx="92" ry="16" fill="#1e293b" opacity="0.12"/>
  <rect x="118" y="312" width="164" height="40" rx="14" fill="#1d4ed8"/>
  <ellipse cx="200" cy="312" rx="82" ry="28" fill="#2563eb"/>
  <ellipse cx="200" cy="306" rx="64" ry="20" fill="#93c5fd"/>
  <!-- webcam com suporte -->
  <rect x="368" y="320" width="64" height="14" rx="7" fill="#475569"/>
  <rect x="392" y="220" width="14" height="104" rx="6" fill="#475569"/>
  <ellipse cx="399" cy="196" rx="42" ry="32" fill="#0f172a"/>
  <circle cx="399" cy="196" r="17" fill="#1d4ed8"/>
  <circle cx="399" cy="196" r="8" fill="#93c5fd"/>
  <!-- prancha de comunicação -->
  <rect x="500" y="150" width="210" height="150" rx="14" fill="#ffffff" stroke="#cbd5e1" stroke-width="3"/>
  <rect x="516" y="166" width="54" height="48" rx="8" fill="#3b82f6"/>
  <rect x="578" y="166" width="54" height="48" rx="8" fill="#22c55e"/>
  <rect x="640" y="166" width="54" height="48" rx="8" fill="#f59e0b"/>
  <rect x="516" y="226" width="54" height="48" rx="8" fill="#ef4444"/>
  <rect x="578" y="226" width="54" height="48" rx="8" fill="#8b5cf6"/>
  <rect x="640" y="226" width="54" height="48" rx="8" fill="#0ea5e9"/>
  <!-- sensor de sopro -->
  <path d="M520 360 Q 560 330 612 348" stroke="#94a3b8" stroke-width="10" fill="none" stroke-linecap="round"/>
  <rect x="600" y="336" width="56" height="34" rx="10" fill="#15803d"/>
  <circle cx="520" cy="362" r="13" fill="#22c55e"/>
  <path d="M488 348q-8 8 0 16M474 340q-12 14 0 30" stroke="#60a5fa" stroke-width="5" fill="none" stroke-linecap="round"/>
  <!-- teclado ampliado -->
  <rect x="120" y="160" width="190" height="90" rx="12" fill="#f8fafc" stroke="#cbd5e1" stroke-width="3"/>
  <g fill="#1e293b">
    <rect x="136" y="176" width="36" height="26" rx="6"/>
    <rect x="180" y="176" width="36" height="26" rx="6"/>
    <rect x="224" y="176" width="36" height="26" rx="6"/>
    <rect x="136" y="210" width="36" height="26" rx="6"/>
    <rect x="180" y="210" width="36" height="26" rx="6"/>
    <rect x="224" y="210" width="36" height="26" rx="6"/>
    <rect x="268" y="176" width="26" height="60" rx="6" fill="#15803d"/>
  </g>
</svg>
