<svg xmlns="http://www.w3.org/2000/svg" viewBox="0 0 640 360" role="img" aria-label="Ilustração: webcam em suporte para rastreamento visual">
  <defs>
    <linearGradient id="go" x1="0" y1="0" x2="0" y2="1">
      <stop offset="0" stop-color="#eff6ff"/>
      <stop offset="1" stop-color="#e0e7ff"/>
    </linearGradient>
  </defs>
  <rect width="640" height="360" fill="url(#go)"/>
  <circle cx="100" cy="90" r="46" fill="#c7d2fe" opacity="0.55"/>
  <circle cx="560" cy="280" r="54" fill="#bbf7d0" opacity="0.5"/>
  <!-- base e haste -->
  <ellipse cx="320" cy="300" rx="120" ry="16" fill="#1e293b" opacity="0.12"/>
  <rect x="250" y="282" width="140" height="20" rx="10" fill="#475569"/>
  <rect x="312" y="160" width="16" height="126" rx="7" fill="#475569"/>
  <!-- webcam -->
  <ellipse cx="320" cy="128" rx="72" ry="52" fill="#0f172a"/>
  <circle cx="320" cy="128" r="30" fill="#1d4ed8"/>
  <circle cx="320" cy="128" r="15" fill="#93c5fd"/>
  <circle cx="310" cy="118" r="5" fill="#eff6ff"/>
  <!-- feixe do olhar -->
  <path d="M388 116 L530 70M388 140 L530 186" stroke="#60a5fa" stroke-width="5" stroke-dasharray="2 10" stroke-linecap="round"/>
  <!-- alvo de calibração -->
  <circle cx="544" cy="128" r="26" fill="none" stroke="#1d4ed8" stroke-width="5"/>
  <circle cx="544" cy="128" r="8" fill="#1d4ed8"/>
  <!-- luz difusa -->
  <path d="M256 92q-10-22 8-38M232 110q-20-30 6-58" stroke="#fbbf24" stroke-width="5" fill="none" stroke-linecap="round"/>
</svg>
