<svg width="1674" height="942" viewBox="0 0 1674 942" fill="none" xmlns="http://www.w3.org/2000/svg" role="img" aria-labelledby="title desc">
  <title id="title">Logo DAVI</title>
  <desc id="desc">Logo DAVI com mão robótica assistiva dentro da letra A e texto Desenvolvimento Assistivo para vida Independente.</desc>
  <rect width="1674" height="942" fill="#FFFFFF"/>
  <g filter="url(#softShadow)">
    <g fill="#082B63">
      <path d="M122 236H383C515 236 609 317 609 430C609 543 515 624 383 624H122V385H217V530H376C457 530 512 489 512 430C512 371 457 330 376 330H122V236Z"/>
      <path d="M526 624L719 236H861L1055 624H949L790 343L631 624H526Z"/>
      <path d="M933 236H1045L1186 505L1328 236H1439L1247 624H1125L933 236Z"/>
      <path d="M1454 236H1548V624H1454V236Z"/>
    </g>
    <g transform="translate(746 421)" stroke-linecap="round" stroke-linejoin="round">
      <path d="M34 116V143C34 151 40 157 48 157H71C79 157 85 151 85 143V116" fill="#FFFFFF" stroke="#082B63" stroke-width="5"/>
      <path d="M45 130H74" stroke="#082B63" stroke-width="3.5"/>
      <path d="M60 134V150" stroke="#1DA1F2" stroke-width="4.5"/>
      <path d="M38 119C27 114 22 104 20 91L16 67C15 57 21 50 30 50C36 50 41 54 43 61L44 76C45 68 50 63 57 63C64 63 69 68 70 75C71 68 76 64 83 64C91 64 96 70 96 78V91C101 82 111 82 116 89C120 94 119 101 115 106L104 120C98 127 90 130 81 130H53C45 130 40 126 38 119Z" fill="#FFFFFF" stroke="#082B63" stroke-width="5"/>
      <path d="M44 92V63" stroke="#082B63" stroke-width="5"/>
      <path d="M70 96V76" stroke="#082B63" stroke-width="5"/>
      <path d="M96 98V79" stroke="#082B63" stroke-width="5"/>
      <path d="M29 85V68" stroke="#082B63" stroke-width="5"/>
      <path d="M72 76V16C72 8 78 2 86 2C94 2 100 8 100 16V95" fill="#FFFFFF"/>
      <path d="M72 76V16C72 8 78 2 86 2C94 2 100 8 100 16V95" stroke="#082B63" stroke-width="5"/>
      <path d="M79 30H99" stroke="#1DA1F2" stroke-width="3.5"/>
      <path d="M79 59H99" stroke="#1DA1F2" stroke-width="3.5"/>
      <path d="M43 108C52 115 64 118 77 117" stroke="#1DA1F2" stroke-width="3.5"/>
      <circle cx="55" cy="103" r="8.5" fill="#FFFFFF" stroke="#1DA1F2" stroke-width="5"/>
      <circle cx="82" cy="96" r="7.5" fill="#FFFFFF" stroke="#1DA1F2" stroke-width="4.5"/>
      <path d="M63 101L75 98" stroke="#1DA1F2" stroke-width="3.5"/>
    </g>
    <text x="122" y="714" fill="#1F2937" font-family="Arial, Helvetica, sans-serif" font-size="61" font-weight="500" letter-spacing="1">Desenvolvimento Assistivo para vida Independente</text>
  </g>
  <defs>
    <filter id="softShadow" x="80" y="196" width="1510" height="560" filterUnits="userSpaceOnUse" color-interpolation-filters="sRGB">
      <feDropShadow dx="0" dy="8" stdDeviation="10" flood-color="#082B63" flood-opacity="0.08"/>
    </filter>
  </defs>
</svg>
