<svg width="1674" height="942" viewBox="0 0 1674 942" fill="none" xmlns="http://www.w3.org/2000/svg" role="img" aria-labelledby="title desc">
  <title id="title">Logo DAVI</title>
  <desc id="desc">Logo DAVI com mão robótica assistiva dentro da letra A e texto Desenvolvimento Assistivo para vida Independente.</desc>
  <rect width="1674" height="942" fill="#FFFFFF"/>
  <g filter="url(#softShadow)">
    <g fill="#082B63">
      <path d="M122 236H383C515 236 609 317 609 430C609 543 515 624 383 624H122V385H217V530H376C457 530 512 489 512 430C512 371 457 330 376 330H122V236Z"/>
      <path d="M526 624L719 236H861L1055 624H949L790 343L631 624H526Z"/>
      <path d="M933 236H1045L1186 505L1328 236H1439L1247 624H1125L933 236Z"/>
      <path d="M1454 236H1548V624H1454V236Z"/>
    </g>
    <g transform="translate(718 394) scale(1.18)" stroke-linecap="round" stroke-linejoin="round">
      <path d="M70 138V168C70 177 77 184 86 184H116C125 184 132 177 132 168V138" fill="#FFFFFF" stroke="#082B63" stroke-width="7"/>
      <path d="M82 152H120" stroke="#082B63" stroke-width="5"/>
      <path d="M101 157V176" stroke="#1DA1F2" stroke-width="6"/>
      <path d="M64 139C49 132 40 120 37 102L34 83C32 70 41 61 53 62C61 63 67 68 69 76V60C69 50 77 42 87 42C96 42 103 49 104 58V15C104 5 112 -3 122 -3C132 -3 140 5 140 15V91C145 82 154 79 163 83C173 88 177 99 171 109L158 130C151 141 141 147 128 147H84C77 147 70 144 64 139Z" fill="#FFFFFF" stroke="#082B63" stroke-width="7"/>
      <path d="M104 58V111" stroke="#082B63" stroke-width="7"/>
      <path d="M70 77L72 113" stroke="#082B63" stroke-width="7"/>
      <path d="M51 82L55 111" stroke="#082B63" stroke-width="7"/>
      <path d="M88 71C97 71 104 78 104 87V114" stroke="#082B63" stroke-width="7"/>
      <path d="M118 18H139" stroke="#1DA1F2" stroke-width="4"/>
      <path d="M118 48H139" stroke="#1DA1F2" stroke-width="4"/>
      <path d="M86 98C99 111 116 116 134 112" stroke="#082B63" stroke-width="6"/>
      <path d="M61 121C74 132 91 137 110 136" stroke="#1DA1F2" stroke-width="4"/>
      <circle cx="92" cy="119" r="11" fill="#FFFFFF" stroke="#1DA1F2" stroke-width="7"/>
      <circle cx="126" cy="105" r="10" fill="#FFFFFF" stroke="#1DA1F2" stroke-width="6"/>
      <path d="M102 115L117 108" stroke="#1DA1F2" stroke-width="5"/>
      <path d="M44 99C52 102 61 102 69 99" stroke="#082B63" stroke-width="5"/>
      <path d="M70 92C81 96 93 96 104 92" stroke="#082B63" stroke-width="5"/>
    </g>
    <text x="122" y="714" fill="#1F2937" font-family="Arial, Helvetica, sans-serif" font-size="61" font-weight="500" letter-spacing="1">Desenvolvimento Assistivo para vida Independente</text>
  </g>
  <defs>
    <filter id="softShadow" x="80" y="196" width="1510" height="560" filterUnits="userSpaceOnUse" color-interpolation-filters="sRGB">
      <feDropShadow dx="0" dy="8" stdDeviation="10" flood-color="#082B63" flood-opacity="0.08"/>
    </filter>
  </defs>
</svg>
