<svg width="220" height="220" viewBox="0 0 220 220" fill="none" xmlns="http://www.w3.org/2000/svg" role="img" aria-labelledby="title desc">
  <title id="title">Símbolo DAVI</title>
  <desc id="desc">Símbolo compacto DAVI com letra A e mão robótica assistiva.</desc>
  <rect width="220" height="220" rx="44" fill="#FFFFFF"/>
  <rect x="4" y="4" width="212" height="212" rx="40" stroke="#E4E7EC" stroke-width="8"/>
  <path d="M48 180L110 36L172 180H136L124 150H76L64 180H48Z" fill="#082B63"/>
  <path d="M88 120L110 68L132 120H88Z" fill="#FFFFFF"/>
  <g transform="translate(58 83) scale(0.62)" stroke-linecap="round" stroke-linejoin="round">
    <path d="M72 126V166C72 174 78 180 86 180H117C125 180 131 174 131 166V126" fill="#FFFFFF" stroke="#082B63" stroke-width="6"/>
    <path d="M84 143H119" stroke="#082B63" stroke-width="4"/>
    <path d="M102 150V171" stroke="#1DA1F2" stroke-width="5"/>
    <path d="M74 126C57 126 45 115 42 98L37 70C35 59 42 51 52 51C59 51 65 55 68 62C69 52 76 46 85 46C93 46 99 51 101 59C103 52 109 48 117 48C126 48 132 55 132 64V88C137 80 146 78 154 83C163 88 166 99 160 107L145 127C138 136 128 141 116 141H86C80 141 75 137 74 126Z" fill="#FFFFFF" stroke="#082B63" stroke-width="6"/>
    <path d="M69 96V66" stroke="#082B63" stroke-width="6"/>
    <path d="M101 96V63" stroke="#082B63" stroke-width="6"/>
    <path d="M132 96V67" stroke="#082B63" stroke-width="6"/>
    <path d="M52 89V72" stroke="#082B63" stroke-width="6"/>
    <path d="M96 60V17C96 8 103 1 112 1C121 1 128 8 128 17V92" fill="#FFFFFF"/>
    <path d="M96 60V17C96 8 103 1 112 1C121 1 128 8 128 17V92" stroke="#082B63" stroke-width="6"/>
    <path d="M104 32H128" stroke="#1DA1F2" stroke-width="4"/>
    <path d="M104 61H128" stroke="#1DA1F2" stroke-width="4"/>
    <path d="M75 113C86 123 101 127 118 126" stroke="#1DA1F2" stroke-width="4"/>
    <circle cx="88" cy="108" r="10" fill="#FFFFFF" stroke="#1DA1F2" stroke-width="6"/>
    <circle cx="119" cy="99" r="9" fill="#FFFFFF" stroke="#1DA1F2" stroke-width="5"/>
    <path d="M97 105L111 100" stroke="#1DA1F2" stroke-width="4"/>
  </g>
</svg>
