<svg width="1674" height="942" viewBox="0 0 1674 942" fill="none" xmlns="http://www.w3.org/2000/svg" role="img" aria-labelledby="title desc">
  <title id="title">Logo DAVI</title>
  <desc id="desc">Logo DAVI com mão robótica assistiva dentro da letra A e texto Desenvolvimento Assistivo para vida Independente.</desc>
  <rect width="1674" height="942" fill="#FFFFFF"/>
  <g filter="url(#softShadow)">
    <g fill="#082B63">
      <path d="M122 236H383C515 236 609 317 609 430C609 543 515 624 383 624H122V385H217V530H376C457 530 512 489 512 430C512 371 457 330 376 330H122V236Z"/>
      <path d="M526 624L719 236H861L1055 624H949L790 343L631 624H526Z"/>
      <path d="M933 236H1045L1186 505L1328 236H1439L1247 624H1125L933 236Z"/>
      <path d="M1454 236H1548V624H1454V236Z"/>
    </g>
    <g transform="translate(720 423)" stroke-linecap="round" stroke-linejoin="round">
      <path d="M72 126V166C72 174 78 180 86 180H117C125 180 131 174 131 166V126" fill="#FFFFFF" stroke="#082B63" stroke-width="6"/>
      <path d="M84 143H119" stroke="#082B63" stroke-width="4"/>
      <path d="M102 150V171" stroke="#1DA1F2" stroke-width="5"/>
      <path d="M74 126C57 126 45 115 42 98L37 70C35 59 42 51 52 51C59 51 65 55 68 62C69 52 76 46 85 46C93 46 99 51 101 59C103 52 109 48 117 48C126 48 132 55 132 64V88C137 80 146 78 154 83C163 88 166 99 160 107L145 127C138 136 128 141 116 141H86C80 141 75 137 74 126Z" fill="#FFFFFF" stroke="#082B63" stroke-width="6"/>
      <path d="M69 96V66" stroke="#082B63" stroke-width="6"/>
      <path d="M101 96V63" stroke="#082B63" stroke-width="6"/>
      <path d="M132 96V67" stroke="#082B63" stroke-width="6"/>
      <path d="M52 89V72" stroke="#082B63" stroke-width="6"/>
      <path d="M96 60V17C96 8 103 1 112 1C121 1 128 8 128 17V92" fill="#FFFFFF"/>
      <path d="M96 60V17C96 8 103 1 112 1C121 1 128 8 128 17V92" stroke="#082B63" stroke-width="6"/>
      <path d="M104 32H128" stroke="#1DA1F2" stroke-width="4"/>
      <path d="M104 61H128" stroke="#1DA1F2" stroke-width="4"/>
      <path d="M75 113C86 123 101 127 118 126" stroke="#1DA1F2" stroke-width="4"/>
      <circle cx="88" cy="108" r="10" fill="#FFFFFF" stroke="#1DA1F2" stroke-width="6"/>
      <circle cx="119" cy="99" r="9" fill="#FFFFFF" stroke="#1DA1F2" stroke-width="5"/>
      <path d="M97 105L111 100" stroke="#1DA1F2" stroke-width="4"/>
    </g>
    <text x="122" y="714" fill="#1F2937" font-family="Arial, Helvetica, sans-serif" font-size="61" font-weight="500" letter-spacing="1">Desenvolvimento Assistivo para vida Independente</text>
  </g>
  <defs>
    <filter id="softShadow" x="80" y="196" width="1510" height="560" filterUnits="userSpaceOnUse" color-interpolation-filters="sRGB">
      <feDropShadow dx="0" dy="8" stdDeviation="10" flood-color="#082B63" flood-opacity="0.08"/>
    </filter>
  </defs>
</svg>
