<svg width="1400" height="430" viewBox="0 0 1400 430" fill="none" xmlns="http://www.w3.org/2000/svg" role="img" aria-labelledby="title desc">
  <title id="title">Logo DAVI</title>
  <desc id="desc">Logo DAVI com tipografia azul profunda e mão robótica assistiva no interior da letra A.</desc>
  <rect width="1400" height="430" fill="white"/>
  <g fill="#082B63">
    <text x="45" y="300" font-family="Arial Black, Arial, Helvetica, sans-serif" font-size="285" font-weight="900" letter-spacing="-8">DAVI</text>
  </g>
  <g transform="translate(590 150)" stroke-linecap="round" stroke-linejoin="round">
    <path d="M78 146C54 146 37 131 34 108L28 70C26 56 34 45 47 43C56 42 64 46 68 53C70 42 78 35 89 35C100 35 108 42 110 53C113 44 121 39 131 40C142 41 149 49 150 60V82C154 75 161 71 169 72C181 74 188 85 184 97L173 132C168 150 153 160 134 160H91C85 160 80 155 80 149V146H78Z" fill="white" stroke="#082B63" stroke-width="8"/>
    <path d="M70 104V60" stroke="#082B63" stroke-width="8"/>
    <path d="M110 103V58" stroke="#082B63" stroke-width="8"/>
    <path d="M149 105V64" stroke="#082B63" stroke-width="8"/>
    <path d="M48 92V68" stroke="#082B63" stroke-width="8"/>
    <path d="M91 160V190C91 199 98 206 107 206H132C141 206 148 199 148 190V160" fill="white"/>
    <path d="M91 160V190C91 199 98 206 107 206H132C141 206 148 199 148 190V160" stroke="#082B63" stroke-width="8"/>
    <path d="M119 171V193" stroke="#1DA1F2" stroke-width="7"/>
    <circle cx="91" cy="122" r="13" fill="white" stroke="#1DA1F2" stroke-width="8"/>
    <circle cx="124" cy="110" r="11" fill="white" stroke="#1DA1F2" stroke-width="7"/>
    <path d="M96 112L116 96" stroke="#1DA1F2" stroke-width="6"/>
    <path d="M77 143C86 151 100 154 115 153" stroke="#1DA1F2" stroke-width="5"/>
    <path d="M57 129C62 137 68 143 75 148" stroke="#1DA1F2" stroke-width="5"/>
    <path d="M88 35V15C88 5 96 -3 106 -3C116 -3 124 5 124 15V72" fill="white"/>
    <path d="M88 35V15C88 5 96 -3 106 -3C116 -3 124 5 124 15V72" stroke="#082B63" stroke-width="8"/>
    <path d="M98 42H123" stroke="#1DA1F2" stroke-width="5"/>
  </g>
  <text x="306" y="365" fill="#082B63" font-family="Arial, Helvetica, sans-serif" font-size="40" font-weight="700">Tecnologia Assistiva para Vida Independente</text>
</svg>
