<svg width="1674" height="942" viewBox="0 0 1674 942" fill="none" xmlns="http://www.w3.org/2000/svg" role="img" aria-labelledby="title desc">
  <title id="title">Logo DAVI</title>
  <desc id="desc">Logo DAVI com texto Desenvolvimento Assistivo para vida Independente.</desc>
  <rect width="1674" height="942" fill="#FFFFFF"/>
  <g filter="url(#softShadow)">
    <g fill="#082B63">
      <path d="M122 236H383C515 236 609 317 609 430C609 543 515 624 383 624H122V385H217V530H376C457 530 512 489 512 430C512 371 457 330 376 330H122V236Z"/>
      <path d="M526 624L719 236H861L1055 624H949L790 343L631 624H526Z"/>
      <path d="M933 236H1045L1186 505L1328 236H1439L1247 624H1125L933 236Z"/>
      <path d="M1454 236H1548V624H1454V236Z"/>
    </g>
    <text x="122" y="714" fill="#1F2937" font-family="Arial, Helvetica, sans-serif" font-size="61" font-weight="500" letter-spacing="1">Desenvolvimento Assistivo para vida Independente</text>
  </g>
  <defs>
    <filter id="softShadow" x="80" y="196" width="1510" height="560" filterUnits="userSpaceOnUse" color-interpolation-filters="sRGB">
      <feDropShadow dx="0" dy="8" stdDeviation="10" flood-color="#082B63" flood-opacity="0.08"/>
    </filter>
  </defs>
</svg>
